<svg xmlns="http://www.w3.org/2000/svg" viewBox="0 0 158.55 175.72"><defs><style>.cls-1{fill:#78a845;}.cls-2{fill:#231f20;}</style></defs><g id="Layer_2" data-name="Layer 2"><g id="Layer_1-2" data-name="Layer 1"><path class="cls-1" d="M49.55,136.37a8.33,8.33,0,0,0,0,11.71l68.16-68.67,6.37,6.42L52.87,157.59A9.07,9.07,0,0,0,44.11,160a9.28,9.28,0,0,0,0,13A9.08,9.08,0,0,0,57,173a9.25,9.25,0,0,0,2-9.95l76.66-77.24-18-18.14Zm4.56,33.69a5,5,0,0,1-7.06,0,5,5,0,0,1,0-7.11,5,5,0,0,1,7.06,0A5.07,5.07,0,0,1,54.11,170.06Z"/><path class="cls-1" d="M101.74,2.7a9.26,9.26,0,0,0-2.09,9.74L22.92,89.74l17.91,18.05,68.54-68.35,0,0a8.24,8.24,0,0,0,0-11.58L40.86,96.09l-6.33-6.37,71.12-71.66a9.06,9.06,0,0,0,9-2.33,9.25,9.25,0,0,0,0-13A9.09,9.09,0,0,0,101.74,2.7Zm10,10.07a5,5,0,0,1-7,0,5.05,5.05,0,0,1,0-7.11,5,5,0,0,1,7.06,0A5.06,5.06,0,0,1,111.73,12.77Z"/><path class="cls-2" d="M10.9,88.85l30.73,31,74.56-75.13,42.36,42.68-73.84,74.4a8.18,8.18,0,0,1-11.62,0h0l74.56-75.13-30.73-31L42.36,130.79,0,88.12l73.84-74.4a8.18,8.18,0,0,1,11.62,0h0Z"/></g></g></svg>